<svg width="14" height="25" viewBox="0 0 14 25" fill="none" xmlns="http://www.w3.org/2000/svg">
<path d="M7.73333 11.2116C4.70666 10.4307 3.73333 9.62328 3.73333 8.36588C3.73333 6.92318 5.08 5.91726 7.33333 5.91726C9.22666 5.91726 10.1733 6.63199 10.52 7.77027C10.68 8.2997 11.12 8.69677 11.68 8.69677H12.08C12.96 8.69677 13.5867 7.83645 13.28 7.01583C12.72 5.45401 11.4133 4.1569 9.33333 3.65394V2.74068C9.33333 1.64211 8.44 0.75531 7.33333 0.75531C6.22666 0.75531 5.33333 1.64211 5.33333 2.74068V3.61424C2.74666 4.17014 0.666664 5.83785 0.666664 8.39235C0.666664 11.4498 3.21333 12.9719 6.93333 13.8587C10.2667 14.6529 10.9333 15.8176 10.9333 17.0485C10.9333 17.9618 10.28 19.4177 7.33333 19.4177C5.13333 19.4177 4 18.6368 3.56 17.525C3.36 17.0088 2.90666 16.6382 2.36 16.6382H1.98666C1.09333 16.6382 0.466664 17.5383 0.799997 18.3589C1.56 20.1987 3.33333 21.284 5.33333 21.7075V22.5943C5.33333 23.6929 6.22666 24.5797 7.33333 24.5797C8.44 24.5797 9.33333 23.6929 9.33333 22.5943V21.734C11.9333 21.2443 14 19.7486 14 17.0353C14 13.2764 10.76 11.9925 7.73333 11.2116Z" fill="#009951"/>
</svg>
