<svg width="26" height="26" viewBox="0 0 26 26" fill="none" xmlns="http://www.w3.org/2000/svg">
<path d="M13 11.9167C13.857 11.9167 14.6949 11.6625 15.4075 11.1864C16.1201 10.7102 16.6755 10.0334 17.0035 9.24163C17.3315 8.44982 17.4173 7.57853 17.2501 6.73794C17.0829 5.89736 16.6702 5.12523 16.0641 4.51921C15.4581 3.91318 14.686 3.50047 13.8454 3.33327C13.0048 3.16606 12.1335 3.25188 11.3417 3.57986C10.5499 3.90784 9.87312 4.46325 9.39696 5.17586C8.92081 5.88848 8.66666 6.72628 8.66666 7.58334C8.66666 8.73261 9.12321 9.83481 9.93587 10.6475C10.7485 11.4601 11.8507 11.9167 13 11.9167Z" fill="#009951"/>
<path d="M19.5 22.75C19.7873 22.75 20.0629 22.6359 20.266 22.4327C20.4692 22.2295 20.5833 21.954 20.5833 21.6667C20.5833 19.6555 19.7844 17.7266 18.3622 16.3045C16.9401 14.8823 15.0112 14.0833 13 14.0833C10.9888 14.0833 9.05992 14.8823 7.63777 16.3045C6.21562 17.7266 5.41666 19.6555 5.41666 21.6667C5.41666 21.954 5.5308 22.2295 5.73397 22.4327C5.93713 22.6359 6.21268 22.75 6.5 22.75H19.5Z" fill="#009951"/>
</svg>
