<svg width="21" height="20" viewBox="0 0 21 20" fill="none" xmlns="http://www.w3.org/2000/svg">
<path d="M16.3333 8.95835H14.6666C12.65 8.95835 11.5416 7.85002 11.5416 5.83335V4.16669C11.5416 2.15002 12.65 1.04169 14.6666 1.04169H16.3333C18.35 1.04169 19.4583 2.15002 19.4583 4.16669V5.83335C19.4583 7.85002 18.35 8.95835 16.3333 8.95835ZM14.6666 2.29169C13.35 2.29169 12.7916 2.85002 12.7916 4.16669V5.83335C12.7916 7.15002 13.35 7.70835 14.6666 7.70835H16.3333C17.65 7.70835 18.2083 7.15002 18.2083 5.83335V4.16669C18.2083 2.85002 17.65 2.29169 16.3333 2.29169H14.6666Z" fill="#6F6F6F"/>
<path d="M6.33329 18.9584H4.66663C2.64996 18.9584 1.54163 17.85 1.54163 15.8334V14.1667C1.54163 12.15 2.64996 11.0417 4.66663 11.0417H6.33329C8.34996 11.0417 9.45829 12.15 9.45829 14.1667V15.8334C9.45829 17.85 8.34996 18.9584 6.33329 18.9584ZM4.66663 12.2917C3.34996 12.2917 2.79163 12.85 2.79163 14.1667V15.8334C2.79163 17.15 3.34996 17.7084 4.66663 17.7084H6.33329C7.64996 17.7084 8.20829 17.15 8.20829 15.8334V14.1667C8.20829 12.85 7.64996 12.2917 6.33329 12.2917H4.66663Z" fill="#6F6F6F"/>
<path d="M5.49996 8.95835C3.31663 8.95835 1.54163 7.18335 1.54163 5.00002C1.54163 2.81669 3.31663 1.04169 5.49996 1.04169C7.68329 1.04169 9.45829 2.81669 9.45829 5.00002C9.45829 7.18335 7.68329 8.95835 5.49996 8.95835ZM5.49996 2.29169C4.00829 2.29169 2.79163 3.50835 2.79163 5.00002C2.79163 6.49169 4.00829 7.70835 5.49996 7.70835C6.99163 7.70835 8.20829 6.49169 8.20829 5.00002C8.20829 3.50835 6.99163 2.29169 5.49996 2.29169Z" fill="#6F6F6F"/>
<path d="M15.5 18.9584C13.3166 18.9584 11.5416 17.1834 11.5416 15C11.5416 12.8167 13.3166 11.0417 15.5 11.0417C17.6833 11.0417 19.4583 12.8167 19.4583 15C19.4583 17.1834 17.6833 18.9584 15.5 18.9584ZM15.5 12.2917C14.0083 12.2917 12.7916 13.5084 12.7916 15C12.7916 16.4917 14.0083 17.7084 15.5 17.7084C16.9916 17.7084 18.2083 16.4917 18.2083 15C18.2083 13.5084 16.9916 12.2917 15.5 12.2917Z" fill="#6F6F6F"/>
</svg>
