<svg width="21" height="20" viewBox="0 0 21 20" fill="none" xmlns="http://www.w3.org/2000/svg">
<path d="M14.25 7.19165C13.9083 7.19165 13.625 6.90832 13.625 6.56665V5.41665C13.625 4.54165 13.25 3.69165 12.6 3.09998C11.9417 2.49998 11.0917 2.22498 10.1917 2.30832C8.69167 2.44998 7.375 3.98332 7.375 5.58332V6.39165C7.375 6.73332 7.09167 7.01665 6.75 7.01665C6.40833 7.01665 6.125 6.73332 6.125 6.39165V5.57498C6.125 3.33332 7.93333 1.26665 10.075 1.05832C11.325 0.941651 12.525 1.33332 13.4417 2.17498C14.35 2.99998 14.875 4.18332 14.875 5.41665V6.56665C14.875 6.90832 14.5917 7.19165 14.25 7.19165Z" fill="#009951"/>
<path d="M13 18.9584H7.99997C4.14997 18.9584 3.4333 17.1667 3.24997 15.425L2.62497 10.4334C2.5333 9.53335 2.49997 8.24169 3.37497 7.27502C4.12497 6.44169 5.36664 6.04169 7.16664 6.04169H13.8333C15.6416 6.04169 16.8833 6.45002 17.625 7.27502C18.4916 8.24169 18.4666 9.53335 18.375 10.4167L17.75 15.425C17.5666 17.1667 16.85 18.9584 13 18.9584ZM7.16664 7.29169C5.7583 7.29169 4.79164 7.56669 4.29997 8.11669C3.89164 8.56669 3.7583 9.25835 3.86664 10.2917L4.49164 15.2834C4.6333 16.6167 4.99997 17.7167 7.99997 17.7167H13C16 17.7167 16.3666 16.625 16.5083 15.3L17.1333 10.2917C17.2416 9.27502 17.1083 8.58335 16.7 8.12502C16.2083 7.56669 15.2416 7.29169 13.8333 7.29169H7.16664Z" fill="#009951"/>
<path d="M13.35 10.9584C12.8833 10.9584 12.5083 10.5834 12.5083 10.125C12.5083 9.66669 12.8833 9.29169 13.3416 9.29169C13.8 9.29169 14.175 9.66669 14.175 10.125C14.175 10.5834 13.8083 10.9584 13.35 10.9584Z" fill="#009951"/>
<path d="M7.51672 10.9584C7.05005 10.9584 6.67505 10.5834 6.67505 10.125C6.67505 9.66669 7.05005 9.29169 7.50838 9.29169C7.96672 9.29169 8.34172 9.66669 8.34172 10.125C8.34172 10.5834 7.97505 10.9584 7.51672 10.9584Z" fill="#009951"/>
</svg>
