<svg width="21" height="21" viewBox="0 0 21 21" fill="none" xmlns="http://www.w3.org/2000/svg">
<path d="M1 9.39235C1 8.16315 1.56516 7.00221 2.53264 6.24399L8.03264 1.93366C9.48158 0.798135 11.5184 0.798136 12.9674 1.93366L18.4674 6.244C19.4348 7.00221 20 8.16315 20 9.39235V15.8537C20 18.0628 18.2091 19.8537 16 19.8537H14.5C13.9477 19.8537 13.5 19.4059 13.5 18.8537V15.8976C13.5 14.793 12.6046 13.8976 11.5 13.8976H9.5C8.39543 13.8976 7.5 14.793 7.5 15.8976V18.8537C7.5 19.4059 7.05228 19.8537 6.5 19.8537H5C2.79086 19.8537 1 18.0628 1 15.8537L1 9.39235Z" stroke="#009951" stroke-width="2"/>
</svg>
