<svg xmlns="http://www.w3.org/2000/svg" x="0px" y="0px" width="50" height="50" viewBox="0 0 48 48">
    <path d="M 11.5 6 C 8.467 6 6 8.467 6 11.5 L 6 17.5 C 6 20.533 8.467 23 11.5 23 L 17.5 23 C 20.533 23 23 20.533 23 17.5 L 23 11.5 C 23 8.467 20.533 6 17.5 6 L 11.5 6 z M 30.5 6 C 27.480226 6 25 8.4802259 25 11.5 L 25 17.5 C 25 20.519774 27.480226 23 30.5 23 L 36.5 23 C 39.519774 23 42 20.519774 42 17.5 L 42 11.5 C 42 8.4802259 39.519774 6 36.5 6 L 30.5 6 z M 30.5 9 L 36.5 9 C 37.898226 9 39 10.101774 39 11.5 L 39 17.5 C 39 18.898226 37.898226 20 36.5 20 L 30.5 20 C 29.101774 20 28 18.898226 28 17.5 L 28 11.5 C 28 10.101774 29.101774 9 30.5 9 z M 11.5 25 C 8.4802259 25 6 27.480226 6 30.5 L 6 36.5 C 6 39.519774 8.4802259 42 11.5 42 L 17.5 42 C 20.519774 42 23 39.519774 23 36.5 L 23 30.5 C 23 27.480226 20.519774 25 17.5 25 L 11.5 25 z M 30.5 25 C 27.467 25 25 27.467 25 30.5 L 25 36.5 C 25 39.533 27.467 42 30.5 42 L 36.5 42 C 39.533 42 42 39.533 42 36.5 L 42 30.5 C 42 27.467 39.533 25 36.5 25 L 30.5 25 z M 11.5 28 L 17.5 28 C 18.898226 28 20 29.101774 20 30.5 L 20 36.5 C 20 37.898226 18.898226 39 17.5 39 L 11.5 39 C 10.101774 39 9 37.898226 9 36.5 L 9 30.5 C 9 29.101774 10.101774 28 11.5 28 z"></path>
</svg>