<svg width="20" height="18" viewBox="0 0 20 18" fill="none" xmlns="http://www.w3.org/2000/svg">
<path d="M1 7.3195H2.04548M2.04548 7.3195H17.9545M2.04548 7.3195C2.05661 7.26841 2.06977 7.21776 2.08496 7.16773C2.12122 7.04832 2.17242 6.9335 2.27539 6.70352L3.82165 3.24989C4.12737 2.56706 4.28048 2.22545 4.5221 1.97511C4.73568 1.75382 4.99764 1.58478 5.28809 1.48091C5.61667 1.3634 5.99336 1.3634 6.74609 1.3634H13.2536C14.0063 1.3634 14.3833 1.3634 14.7119 1.48091C15.0024 1.58478 15.264 1.75382 15.4775 1.97511C15.719 2.22528 15.8718 2.56661 16.1771 3.24851L17.7296 6.71608C17.8289 6.93772 17.8794 7.05052 17.915 7.16773C17.9301 7.21776 17.9433 7.26841 17.9545 7.3195M2.04548 7.3195C2.03302 7.37672 2.0231 7.43448 2.01572 7.49254C2 7.61627 2 7.74206 2 7.99373V13.2756M17.9545 7.3195H19M17.9545 7.3195C17.967 7.37672 17.977 7.43448 17.9844 7.49254C18 7.61552 18 7.74058 18 7.98921V13.2757M18 13.2757L14 13.2757M18 13.2757V14.2682C18 15.3647 17.1046 16.2536 16 16.2536C14.8954 16.2536 14 15.3648 14 14.2683V13.2757M14 13.2757L6 13.2756M6 13.2756H2M6 13.2756V14.2683C6 15.3648 5.10457 16.2536 4 16.2536C2.89543 16.2536 2 15.3648 2 14.2683V13.2756" stroke="#009951" stroke-width="2" stroke-linecap="round" stroke-linejoin="round"/>
</svg>
